<svg width="16" height="11" viewBox="0 0 16 11" fill="none" xmlns="http://www.w3.org/2000/svg">
<path d="M7.63838 7.875C3.92588 7.875 3.92588 2.25 7.63838 2.25C11.3087 2.25 11.4673 7.875 7.63838 7.875ZM7.63838 3.375C5.38838 3.375 5.38838 6.75 7.63838 6.75C9.88838 6.75 9.88838 3.375 7.63838 3.375Z" fill="#808080"/>
<path d="M7.63833 10.125C4.85452 10.125 2.18883 8.64619 0.325829 6.06712C0.11404 5.77497 0 5.42335 0 5.0625C0 4.70165 0.11404 4.35003 0.325829 4.05787C2.18883 1.47881 4.85452 0 7.63833 0C10.4221 0 13.0878 1.47881 14.9508 4.05787C15.1626 4.35003 15.2767 4.70165 15.2767 5.0625C15.2767 5.42335 15.1626 5.77497 14.9508 6.06712C13.0878 8.64619 10.4221 10.125 7.63833 10.125ZM1.23539 5.40788C2.91052 7.72425 5.18414 9 7.63833 9C10.0925 9 12.3661 7.72425 14.0413 5.40788C14.1141 5.30735 14.1534 5.18637 14.1534 5.06222C14.1534 4.93806 14.1141 4.81708 14.0413 4.71656C12.3661 2.40075 10.0925 1.125 7.63833 1.125C5.18414 1.125 2.91052 2.40075 1.23539 4.71712C1.16252 4.81765 1.12329 4.93863 1.12329 5.06278C1.12329 5.18694 1.16252 5.30735 1.23539 5.40788Z" fill="#808080"/>
</svg>
