<svg width="18" height="18" viewBox="0 0 18 18" fill="none" xmlns="http://www.w3.org/2000/svg">
<path d="M7.9388 7.94019C7.65754 8.22155 7.49956 8.60312 7.49963 9.00095C7.4997 9.39879 7.65781 9.7803 7.93917 10.0616C8.22053 10.3428 8.6021 10.5008 8.99994 10.5007C9.39777 10.5007 9.77928 10.3425 10.0605 10.0612M12.5107 12.5048C11.4587 13.163 10.241 13.5082 9 13.5C6.3 13.5 4.05 12 2.25 9.00002C3.204 7.41002 4.284 6.24152 5.49 5.49452M7.635 4.63502C8.08428 4.54407 8.54161 4.49884 9 4.50002C11.7 4.50002 13.95 6.00002 15.75 9.00002C15.2505 9.83252 14.7157 10.5503 14.1465 11.1525M2.25 2.25L15.75 15.75" stroke="#808080" stroke-width="1.4352" stroke-linecap="round" stroke-linejoin="round"/>
</svg>
